<svg xmlns="http://www.w3.org/2000/svg" xmlns:xlink="http://www.w3.org/1999/xlink" viewBox="0 0 45 45"><defs><style>.a,.b,.e,.f{fill:none;}.a{stroke:#f47820;stroke-width:0.95px;}.a,.e,.f{stroke-miterlimit:10;}.c{isolation:isolate;}.d{clip-path:url(#a);}.e,.f{stroke:#2e3429;stroke-width:0.99px;}.f{stroke-linecap:round;}.g{clip-path:url(#b);}.h{fill:#fff6eb;mix-blend-mode:multiply;}.i{clip-path:url(#c);}</style><clipPath id="a"><polygon class="a" points="-38.91 162.9 -119.73 162.9 -119.73 -14.46 -51.58 -14.46 -51.88 -14.46 -52.05 -14.46 -52.14 -0.82 -38.98 -0.75 -38.91 162.9"/></clipPath><clipPath id="b"><polygon class="b" points="-119.73 -14.46 -52.05 -14.46 -52.05 -0.89 -38.91 -0.89 -38.91 162.9 -119.73 162.9 -119.73 -14.46"/></clipPath><clipPath id="c"><rect class="b" x="92.13" y="-7.76" width="70.41" height="166.41"/></clipPath><image id="d" width="2000" height="1340" xlink:href="../../elementi,%20materijal/AU_FG_Texture-8.jpg"/></defs><g class="c"><g class="d"><use transform="translate(-333.1 -94.9) scale(0.26)" xlink:href="#d"/></g><polygon class="a" points="-38.91 162.9 -119.73 162.9 -119.73 -14.46 -51.58 -14.46 -51.88 -14.46 -52.05 -14.46 -52.14 -0.82 -38.98 -0.75 -38.91 162.9"/><rect class="e" x="5.32" y="4.82" width="35.16" height="35.16" rx="1.5"/><line class="f" x1="10.31" y1="9.91" x2="21.77" y2="9.91"/><line class="f" x1="10.31" y1="34.92" x2="22.9" y2="34.92"/><line class="f" x1="10.31" y1="18.09" x2="17.29" y2="18.09"/><line class="f" x1="21.42" y1="18.09" x2="28.75" y2="18.09"/><line class="f" x1="25.45" y1="9.91" x2="28.75" y2="9.91"/><line class="f" x1="10.31" y1="22.24" x2="21.77" y2="22.24"/><line class="f" x1="25.45" y1="22.24" x2="28.75" y2="22.24"/><line class="f" x1="28.75" y1="13.94" x2="17.29" y2="13.94"/><line class="f" x1="13.93" y1="13.94" x2="10.31" y2="13.94"/><line class="f" x1="16.6" y1="26.38" x2="10.31" y2="26.38"/><rect class="f" x="29.92" y="28.85" width="6.15" height="6.15" rx="1.08"/><g class="g"><rect class="h" x="-136.57" y="-24.68" width="210.85" height="195.88"/></g><g class="i"><use transform="translate(-98.68 -37.1) scale(0.19 0.17)" xlink:href="#d"/></g></g></svg>