<svg xmlns="http://www.w3.org/2000/svg" xmlns:xlink="http://www.w3.org/1999/xlink" viewBox="0 0 45 45"><defs><style>.a,.b,.e,.f{fill:none;}.a{stroke:#f47820;stroke-width:0.95px;}.a,.e,.f{stroke-miterlimit:10;}.c{isolation:isolate;}.d{clip-path:url(#a);}.e,.f{stroke:#2e3429;stroke-width:0.99px;}.e{stroke-linecap:round;}.g{clip-path:url(#b);}.h{fill:#fff6eb;mix-blend-mode:multiply;}.i{clip-path:url(#c);}</style><clipPath id="a"><polygon class="a" points="-38.91 57.86 -119.73 57.86 -119.73 -119.5 -51.58 -119.5 -51.88 -119.5 -52.05 -119.5 -52.14 -105.85 -38.98 -105.78 -38.91 57.86"/></clipPath><clipPath id="b"><polygon class="b" points="-119.73 -119.5 -52.05 -119.5 -52.05 -105.92 -38.91 -105.92 -38.91 57.86 -119.73 57.86 -119.73 -119.5"/></clipPath><clipPath id="c"><rect class="b" x="92.13" y="-112.79" width="70.41" height="166.41"/></clipPath><image id="d" width="2000" height="1340" xlink:href="../../elementi,%20materijal/AU_FG_Texture-8.jpg"/></defs><g class="c"><g class="d"><use transform="translate(-333.1 -199.93) scale(0.26)" xlink:href="#d"/></g><polygon class="a" points="-38.91 57.86 -119.73 57.86 -119.73 -119.5 -51.58 -119.5 -51.88 -119.5 -52.05 -119.5 -52.14 -105.85 -38.98 -105.78 -38.91 57.86"/><line class="e" x1="9.71" y1="10.16" x2="16.03" y2="10.16"/><line class="e" x1="17.93" y1="10.16" x2="20.41" y2="10.16"/><line class="e" x1="22.35" y1="10.16" x2="35.3" y2="10.16"/><line class="e" x1="35.3" y1="14.28" x2="24.6" y2="14.28"/><line class="e" x1="22.67" y1="14.28" x2="16.61" y2="14.28"/><line class="e" x1="14.97" y1="14.28" x2="13.79" y2="14.28"/><line class="e" x1="11.86" y1="14.28" x2="9.71" y2="14.28"/><rect class="f" x="4.92" y="4.92" width="35.16" height="35.16" rx="1.5"/><line class="e" x1="35.3" y1="34.84" x2="28.99" y2="34.84"/><line class="e" x1="27.08" y1="34.84" x2="24.6" y2="34.84"/><line class="e" x1="22.67" y1="34.84" x2="16.61" y2="34.84"/><line class="e" x1="14.97" y1="34.84" x2="13.79" y2="34.84"/><line class="e" x1="11.86" y1="34.84" x2="9.71" y2="34.84"/><line class="e" x1="27.59" y1="18.39" x2="31.23" y2="18.39"/><line class="e" x1="33.16" y1="18.39" x2="35.3" y2="18.39"/><line class="e" x1="32.14" y1="26.61" x2="35.3" y2="26.61"/><line class="e" x1="9.71" y1="18.39" x2="18.8" y2="18.39"/><line class="e" x1="20.83" y1="18.39" x2="25.64" y2="18.39"/><line class="e" x1="17.43" y1="22.5" x2="13.79" y2="22.5"/><line class="e" x1="11.86" y1="22.5" x2="9.71" y2="22.5"/><line class="e" x1="35.3" y1="22.5" x2="26.22" y2="22.5"/><line class="e" x1="24.18" y1="22.5" x2="19.38" y2="22.5"/><line class="e" x1="9.71" y1="26.61" x2="15.61" y2="26.61"/><line class="e" x1="17.88" y1="26.61" x2="21.35" y2="26.61"/><line class="e" x1="23.64" y1="26.61" x2="30.04" y2="26.61"/><line class="e" x1="12.87" y1="30.72" x2="9.71" y2="30.72"/><line class="e" x1="35.3" y1="30.72" x2="29.41" y2="30.72"/><line class="e" x1="27.13" y1="30.72" x2="23.66" y2="30.72"/><line class="e" x1="21.38" y1="30.72" x2="14.97" y2="30.72"/><g class="g"><rect class="h" x="-136.57" y="-129.71" width="210.85" height="195.88"/></g><g class="i"><use transform="translate(-98.68 -142.14) scale(0.19 0.17)" xlink:href="#d"/></g></g></svg>