<svg xmlns="http://www.w3.org/2000/svg" xmlns:xlink="http://www.w3.org/1999/xlink" viewBox="0 0 45 45"><defs><style>.a,.b,.e,.f{fill:none;}.a{stroke:#f47820;stroke-width:0.95px;}.a,.e,.f{stroke-miterlimit:10;}.c{isolation:isolate;}.d{clip-path:url(#a);}.e,.f{stroke:#2e3429;stroke-width:0.99px;}.f{stroke-linecap:round;}.g{clip-path:url(#b);}.h{fill:#fff6eb;mix-blend-mode:multiply;}.i{clip-path:url(#c);}</style><clipPath id="a"><polygon class="a" points="-38.91 110.87 -119.73 110.87 -119.73 -66.49 -51.58 -66.49 -51.88 -66.49 -52.05 -66.49 -52.14 -52.84 -38.98 -52.77 -38.91 110.87"/></clipPath><clipPath id="b"><polygon class="b" points="-119.73 -66.49 -52.05 -66.49 -52.05 -52.91 -38.91 -52.91 -38.91 110.87 -119.73 110.87 -119.73 -66.49"/></clipPath><clipPath id="c"><rect class="b" x="92.13" y="-59.78" width="70.41" height="166.41"/></clipPath><image id="d" width="2000" height="1340" xlink:href="../../elementi,%20materijal/AU_FG_Texture-8.jpg"/></defs><g class="c"><g class="d"><use transform="translate(-333.1 -146.92) scale(0.26)" xlink:href="#d"/></g><polygon class="a" points="-38.91 110.87 -119.73 110.87 -119.73 -66.49 -51.58 -66.49 -51.88 -66.49 -52.05 -66.49 -52.14 -52.84 -38.98 -52.77 -38.91 110.87"/><rect class="e" x="4.92" y="4.92" width="35.16" height="35.16" rx="1.5"/><line class="f" x1="9.71" y1="10.16" x2="10.9" y2="10.16"/><line class="f" x1="13.78" y1="10.16" x2="14.96" y2="10.16"/><line class="f" x1="17.84" y1="10.16" x2="19.03" y2="10.16"/><line class="f" x1="21.91" y1="10.16" x2="23.09" y2="10.16"/><line class="f" x1="25.97" y1="10.16" x2="27.16" y2="10.16"/><line class="f" x1="30.04" y1="10.16" x2="31.22" y2="10.16"/><line class="f" x1="34.1" y1="10.16" x2="35.29" y2="10.16"/><line class="f" x1="9.71" y1="14.28" x2="10.9" y2="14.28"/><line class="f" x1="13.78" y1="14.28" x2="14.96" y2="14.28"/><line class="f" x1="17.84" y1="14.28" x2="19.03" y2="14.28"/><line class="f" x1="21.91" y1="14.28" x2="23.09" y2="14.28"/><line class="f" x1="25.97" y1="14.28" x2="27.16" y2="14.28"/><line class="f" x1="30.04" y1="14.28" x2="31.22" y2="14.28"/><line class="f" x1="34.1" y1="14.28" x2="35.29" y2="14.28"/><line class="f" x1="9.71" y1="18.39" x2="10.9" y2="18.39"/><line class="f" x1="13.78" y1="18.39" x2="14.96" y2="18.39"/><line class="f" x1="17.84" y1="18.39" x2="19.03" y2="18.39"/><line class="f" x1="21.91" y1="18.39" x2="23.09" y2="18.39"/><line class="f" x1="25.97" y1="18.39" x2="27.16" y2="18.39"/><line class="f" x1="30.04" y1="18.39" x2="31.22" y2="18.39"/><line class="f" x1="34.1" y1="18.39" x2="35.29" y2="18.39"/><line class="f" x1="9.71" y1="22.5" x2="10.9" y2="22.5"/><line class="f" x1="13.78" y1="22.5" x2="14.96" y2="22.5"/><line class="f" x1="17.84" y1="22.5" x2="19.03" y2="22.5"/><line class="f" x1="21.91" y1="22.5" x2="23.09" y2="22.5"/><line class="f" x1="25.97" y1="22.5" x2="27.16" y2="22.5"/><line class="f" x1="30.04" y1="22.5" x2="31.22" y2="22.5"/><line class="f" x1="34.1" y1="22.5" x2="35.29" y2="22.5"/><line class="f" x1="9.71" y1="26.61" x2="10.9" y2="26.61"/><line class="f" x1="13.78" y1="26.61" x2="14.96" y2="26.61"/><line class="f" x1="17.84" y1="26.61" x2="19.03" y2="26.61"/><line class="f" x1="21.91" y1="26.61" x2="23.09" y2="26.61"/><line class="f" x1="25.97" y1="26.61" x2="27.16" y2="26.61"/><line class="f" x1="30.04" y1="26.61" x2="31.22" y2="26.61"/><line class="f" x1="34.1" y1="26.61" x2="35.29" y2="26.61"/><line class="f" x1="9.71" y1="30.72" x2="10.9" y2="30.72"/><line class="f" x1="13.78" y1="30.72" x2="14.96" y2="30.72"/><line class="f" x1="17.84" y1="30.72" x2="19.03" y2="30.72"/><line class="f" x1="21.91" y1="30.72" x2="23.09" y2="30.72"/><line class="f" x1="25.97" y1="30.72" x2="27.16" y2="30.72"/><line class="f" x1="30.04" y1="30.72" x2="31.22" y2="30.72"/><line class="f" x1="34.1" y1="30.72" x2="35.29" y2="30.72"/><line class="f" x1="9.71" y1="34.84" x2="10.9" y2="34.84"/><line class="f" x1="13.78" y1="34.84" x2="14.96" y2="34.84"/><line class="f" x1="17.84" y1="34.84" x2="19.03" y2="34.84"/><line class="f" x1="21.91" y1="34.84" x2="23.09" y2="34.84"/><line class="f" x1="25.97" y1="34.84" x2="27.16" y2="34.84"/><line class="f" x1="30.04" y1="34.84" x2="31.22" y2="34.84"/><line class="f" x1="34.1" y1="34.84" x2="35.29" y2="34.84"/><g class="g"><rect class="h" x="-136.57" y="-76.7" width="210.85" height="195.88"/></g><g class="i"><use transform="translate(-98.68 -89.13) scale(0.19 0.17)" xlink:href="#d"/></g></g></svg>