<svg xmlns="http://www.w3.org/2000/svg" xmlns:xlink="http://www.w3.org/1999/xlink" viewBox="0 0 289.19 47.47"><defs><style>.a{fill:none;}.b{isolation:isolate;}.c{opacity:0.25;}.d{clip-path:url(#a);}.e{mix-blend-mode:multiply;}.f{fill:#2e3429;}.g{fill:#f47820;}</style><clipPath id="a"><rect class="a" x="-1424.97" y="-73.02" width="1123.52" height="1965.99"/></clipPath></defs><g class="b"><g class="c"><g class="d"><image class="e" width="2000" height="1340" transform="translate(563.4 -145.14) rotate(90) scale(1.74)" xlink:href="../../elementi,%20materijal/AU_FG_Texture-8.jpg"/></g></g><path class="f" d="M97.77,15.07a9.42,9.42,0,0,0-9.55,9.74,9.4,9.4,0,0,0,9.55,9.74c6,0,9.32-4.13,9.32-9.74S103.27,15.07,97.77,15.07Zm0,2.43a6.5,6.5,0,0,1,6.81,6.18H90.87A6.75,6.75,0,0,1,97.77,17.5Zm0,14.61A6.69,6.69,0,0,1,90.87,26h13.75C104.36,29.79,101.74,32.11,97.77,32.11Z"/><path class="f" d="M114.92,15.44V34.17h2.62V17.88h8.76V34.17h2.62V17.88h8.77V34.17h2.62V15.44Z"/><path class="f" d="M158.32,15.07a7.73,7.73,0,0,0-6.63,3.22V15.44h-2.62V42.78h2.62V31.32a7.79,7.79,0,0,0,6.63,3.23c5.5,0,9.21-4.2,9.21-9.74S163.82,15.07,158.32,15.07Zm0,17c-4,0-6.63-2.88-6.63-7.26,0-4.2,2.44-7.27,6.63-7.27s6.55,3.11,6.55,7.27S162.51,32.07,158.32,32.07Z"/><path class="f" d="M174.24,15.44V34.17h2.62V15.44Zm-1-10.75V8.85h4.57V4.69Z"/><path class="f" d="M191.12,21.55l.16-6.11h-2.63l0,18.73h2.62l0-9c0-3.52,4.15-8.76,11.72-7.16V15.44C196.63,14.14,192.58,17,191.12,21.55Z"/><path class="f" d="M210.18,15.44V34.17h2.63V15.44Zm-1-10.75V8.85h4.57V4.69Z"/><path class="f" d="M236.29,15.44l-7,15.66-7-15.66h-3.19l8.73,18.62L225,39.89l-1.45,2.89h3l1.37-2.89L239.4,15.44Z"/><path class="f" d="M253.47,15.07A9.39,9.39,0,0,0,244,24.81a9.38,9.38,0,0,0,9.51,9.74c5.51,0,9.44-4.24,9.44-9.74S259,15.07,253.47,15.07Zm0,17c-4.19,0-6.92-3.07-6.92-7.3s2.77-7.31,6.92-7.31,6.82,3.23,6.82,7.31S257.63,32.11,253.47,32.11Z"/><path class="f" d="M282.61,15.44v16.3H272.2V15.44h-2.62V34.17h15.65V15.44Z"/><polygon class="f" points="69.82 8.85 59.51 39.88 55.9 39.88 66.22 8.85 69.82 8.85"/><path class="g" d="M28.81,8.85H25.72a6.6,6.6,0,0,0-6.59,6.59v8.62H14.75A3.77,3.77,0,0,1,11,20.29V9H8.15V20.29a6.6,6.6,0,0,0,6.6,6.59h4.38v13H22v-13h6.86a6.6,6.6,0,0,0,6.6-6.59V15.44A6.6,6.6,0,0,0,28.81,8.85Zm3.78,11.44a3.78,3.78,0,0,1-3.78,3.77H22V15.44a3.77,3.77,0,0,1,3.77-3.77h3.09a3.78,3.78,0,0,1,3.78,3.77Z"/><rect class="g" x="24.83" y="14.53" width="1.37" height="3.35" rx="0.69"/><rect class="g" x="28.33" y="14.53" width="1.37" height="3.35" rx="0.69"/></g></svg>