<svg xmlns="http://www.w3.org/2000/svg" xmlns:xlink="http://www.w3.org/1999/xlink" viewBox="0 0 350 350"><defs><style>.a{fill:none;}.b{isolation:isolate;}.c{opacity:0.25;}.d{clip-path:url(#a);}.e{mix-blend-mode:multiply;}.f{fill:#f47820;}</style><clipPath id="a"><rect class="a" x="-1407.65" y="-363.65" width="1123.52" height="1965.99"/></clipPath></defs><g class="b"><g class="c"><g class="d"><image class="e" width="2000" height="1340" transform="translate(580.72 -435.76) rotate(90) scale(1.74)" xlink:href="../../elementi,%20materijal/AU_FG_Texture-8.jpg"/></g></g><path class="f" d="M259.46,4.89H225.57A72.51,72.51,0,0,0,153.16,77.3v94.6h-48a41.5,41.5,0,0,1-41.44-41.44V7h-31V130.46a72.5,72.5,0,0,0,72.41,72.41h48V345.59h31V202.87h75.33a72.5,72.5,0,0,0,72.4-72.41V77.3A72.5,72.5,0,0,0,259.46,4.89Zm41.43,125.57a41.5,41.5,0,0,1-41.43,41.44H184.13V77.3a41.5,41.5,0,0,1,41.44-41.44h33.89A41.5,41.5,0,0,1,300.89,77.3Z"/><rect class="f" x="215.72" y="67.28" width="15.08" height="36.75" rx="7.54"/><rect class="f" x="254.2" y="67.28" width="15.08" height="36.75" rx="7.54"/></g></svg>